<svg xmlns="http://www.w3.org/2000/svg" style="display:none">
  <symbol id="g-ic-house-heart" viewBox="0 0 24 24" fill="none" stroke="currentColor" stroke-width="1.3" stroke-linecap="round" stroke-linejoin="round">
    <path d="M3 10.5L12 3l9 7.5" />
    <path d="M5 10v10h14V10" />
    <path d="M12 15.8c-1.2-1.2-3-1.1-3.7.2-.7 1.3.1 2.8 1.6 3.6L12 20l2.1-.4c1.5-.8 2.3-2.3 1.6-3.6-.7-1.3-2.5-1.4-3.7-.2z" />
  </symbol>

  <symbol id="g-ic-search" viewBox="0 0 24 24" fill="none" stroke="currentColor" stroke-width="1.3" stroke-linecap="round" stroke-linejoin="round">
    <circle cx="11" cy="11" r="7" />
    <path d="M20 20l-3.5-3.5" />
  </symbol>

  <symbol id="g-ic-plus" viewBox="0 0 24 24" fill="none" stroke="currentColor" stroke-width="1.3" stroke-linecap="round" stroke-linejoin="round">
    <path d="M12 5v14" />
    <path d="M5 12h14" />
  </symbol>

  <symbol id="g-ic-message-circle-more" viewBox="0 0 24 24" fill="none" stroke="currentColor" stroke-width="1.3" stroke-linecap="round" stroke-linejoin="round">
    <path d="M21 12a8.5 8.5 0 1 1-4-7.2" />
    <path d="M21 12a8.5 8.5 0 0 1-8.5 8.5H7l-4 2v-5.5" />
    <circle cx="9" cy="12" r="1" />
    <circle cx="12" cy="12" r="1" />
    <circle cx="15" cy="12" r="1" />
  </symbol>

  <symbol id="g-ic-user-round" viewBox="0 0 24 24" fill="none" stroke="currentColor" stroke-width="1.3" stroke-linecap="round" stroke-linejoin="round">
    <circle cx="12" cy="8" r="3.5" />
    <path d="M4.5 20a7.5 7.5 0 0 1 15 0" />
  </symbol>

  <symbol id="g-ic-heart" viewBox="0 0 24 24" fill="none" stroke="currentColor" stroke-width="1.3" stroke-linecap="round" stroke-linejoin="round">
    <path d="M12 20s-7-4.4-9-8.6C1.5 8.5 3.3 6 5.9 6c1.7 0 3.2 1 4.1 2.5C10.9 7 12.4 6 14.1 6c2.6 0 4.4 2.5 2.9 5.4C19 15.6 12 20 12 20z" />
  </symbol>

  <symbol id="g-ic-bookmark" viewBox="0 0 24 24" fill="none" stroke="currentColor" stroke-width="1.3" stroke-linecap="round" stroke-linejoin="round">
    <path d="M6 4h12v16l-6-3-6 3z" />
  </symbol>

  <symbol id="g-ic-bookmark-check" viewBox="0 0 24 24" fill="none" stroke="currentColor" stroke-width="1.3" stroke-linecap="round" stroke-linejoin="round">
    <path d="M6 4h12v16l-6-3-6 3z" />
    <path d="M9 11l2 2 4-4" />
  </symbol>

  <symbol id="g-ic-bookmark-x" viewBox="0 0 24 24" fill="none" stroke="currentColor" stroke-width="1.3" stroke-linecap="round" stroke-linejoin="round">
    <path d="M6 4h12v16l-6-3-6 3z" />
    <path d="M9 10l6 6" />
    <path d="M15 10l-6 6" />
  </symbol>

  <symbol id="g-ic-play" viewBox="0 0 24 24" fill="none" stroke="currentColor" stroke-width="1.3" stroke-linecap="round" stroke-linejoin="round">
    <path d="M8 6l10 6-10 6z" />
  </symbol>

  <symbol id="g-ic-chevron-right" viewBox="0 0 24 24" fill="none" stroke="currentColor" stroke-width="1.3" stroke-linecap="round" stroke-linejoin="round">
    <path d="M9 6l6 6-6 6" />
  </symbol>

  <symbol id="g-ic-map-pin" viewBox="0 0 24 24" fill="none" stroke="currentColor" stroke-width="1.3" stroke-linecap="round" stroke-linejoin="round">
    <path d="M12 21s6-6.2 6-11a6 6 0 0 0-12 0c0 4.8 6 11 6 11z" />
    <circle cx="12" cy="10" r="2.5" />
  </symbol>

  <symbol id="g-ic-clock" viewBox="0 0 24 24" fill="none" stroke="currentColor" stroke-width="1.3" stroke-linecap="round" stroke-linejoin="round">
    <circle cx="12" cy="12" r="8" />
    <path d="M12 7v5l3 2" />
  </symbol>

  <symbol id="g-ic-phone" viewBox="0 0 24 24" fill="none" stroke="currentColor" stroke-width="1.3" stroke-linecap="round" stroke-linejoin="round">
    <path d="M6 3h5l2 5-3 2c1.5 3.5 4.5 6.5 8 8l2-3 5 2v5c-8.5 0-16-7.5-16-16z" />
  </symbol>

  <symbol id="g-ic-send" viewBox="0 0 24 24" fill="none" stroke="currentColor" stroke-width="1.3" stroke-linecap="round" stroke-linejoin="round">
    <path d="M22 2L11 13" />
    <path d="M22 2l-7 20-4-9-9-4z" />
  </symbol>

  <symbol id="g-ic-star" viewBox="0 0 24 24" fill="none" stroke="currentColor" stroke-width="1.3" stroke-linecap="round" stroke-linejoin="round">
    <path d="M12 3l2.8 5.6 6.2.9-4.5 4.3 1.1 6.2L12 17l-5.6 3 1.1-6.2-4.5-4.3 6.2-.9z" />
  </symbol>

  <symbol id="g-ic-badge-check" viewBox="0 0 24 24" fill="none" stroke="currentColor" stroke-width="1.3" stroke-linecap="round" stroke-linejoin="round">
    <circle cx="12" cy="12" r="7" />
    <path d="M9 12l2 2 4-4" />
    <path d="M8 21l4-2 4 2" />
  </symbol>

  <symbol id="g-ic-badge-russian-ruble" viewBox="0 0 24 24" fill="none" stroke="currentColor" stroke-width="1.3" stroke-linecap="round" stroke-linejoin="round">
    <circle cx="12" cy="12" r="7" />
    <path d="M10 8h3.2a2.2 2.2 0 0 1 0 4.4H10" />
    <path d="M10 8v8" />
    <path d="M9 12h5" />
    <path d="M9 14.5h4" />
  </symbol>

  <symbol id="g-ic-percent" viewBox="0 0 24 24" fill="none" stroke="currentColor" stroke-width="1.3" stroke-linecap="round" stroke-linejoin="round">
    <path d="M5 19l14-14" />
    <circle cx="7.5" cy="7.5" r="2" />
    <circle cx="16.5" cy="16.5" r="2" />
  </symbol>

  <symbol id="g-ic-gem" viewBox="0 0 24 24" fill="none" stroke="currentColor" stroke-width="1.3" stroke-linecap="round" stroke-linejoin="round">
    <path d="M3 9l4-5h10l4 5-9 11z" />
    <path d="M7 4l5 16 5-16" />
    <path d="M3 9h18" />
  </symbol>

  <symbol id="g-ic-crown" viewBox="0 0 24 24" fill="none" stroke="currentColor" stroke-width="1.3" stroke-linecap="round" stroke-linejoin="round">
    <path d="M3 8l4 3 5-6 5 6 4-3" />
    <path d="M4 20h16l-1-8H5z" />
  </symbol>

  <symbol id="g-ic-ellipsis" viewBox="0 0 24 24" fill="none" stroke="currentColor" stroke-width="1.3" stroke-linecap="round" stroke-linejoin="round">
    <circle cx="6" cy="12" r="1.5" />
    <circle cx="12" cy="12" r="1.5" />
    <circle cx="18" cy="12" r="1.5" />
  </symbol>

  <symbol id="g-ic-pencil" viewBox="0 0 24 24" fill="none" stroke="currentColor" stroke-width="1.3" stroke-linecap="round" stroke-linejoin="round">
    <path d="M4 20l4-1 10-10-3-3L5 16z" />
    <path d="M14 6l3 3" />
  </symbol>

  <symbol id="g-ic-trash-2" viewBox="0 0 24 24" fill="none" stroke="currentColor" stroke-width="1.3" stroke-linecap="round" stroke-linejoin="round">
    <path d="M4 7h16" />
    <path d="M9 7V5h6v2" />
    <path d="M7 7l1 13h8l1-13" />
    <path d="M10 11v6" />
    <path d="M14 11v6" />
  </symbol>

  <symbol id="g-ic-settings-2" viewBox="0 0 24 24" fill="none" stroke="currentColor" stroke-width="1.3" stroke-linecap="round" stroke-linejoin="round">
    <circle cx="12" cy="12" r="3" />
    <path d="M12 2v3" />
    <path d="M12 19v3" />
    <path d="M4.9 4.9l2.1 2.1" />
    <path d="M17 17l2.1 2.1" />
    <path d="M2 12h3" />
    <path d="M19 12h3" />
    <path d="M4.9 19.1l2.1-2.1" />
    <path d="M17 7l2.1-2.1" />
  </symbol>

  <symbol id="g-ic-triangle-alert" viewBox="0 0 24 24" fill="none" stroke="currentColor" stroke-width="1.3" stroke-linecap="round" stroke-linejoin="round">
    <path d="M12 3l9 16H3z" />
    <path d="M12 9v5" />
    <path d="M12 17h.01" />
  </symbol>

  <symbol id="g-ic-loader-circle" viewBox="0 0 24 24" fill="none" stroke="currentColor" stroke-width="1.3" stroke-linecap="round" stroke-linejoin="round">
    <path d="M12 4a8 8 0 1 1-5.7 2.3" />
  </symbol>

  <symbol id="g-ic-ban" viewBox="0 0 24 24" fill="none" stroke="currentColor" stroke-width="1.3" stroke-linecap="round" stroke-linejoin="round">
    <circle cx="12" cy="12" r="8" />
    <path d="M7 7l10 10" />
  </symbol>

  <symbol id="g-ic-x" viewBox="0 0 24 24" fill="none" stroke="currentColor" stroke-width="1.3" stroke-linecap="round" stroke-linejoin="round">
    <path d="M6 6l12 12" />
    <path d="M18 6l-12 12" />
  </symbol>
</svg>
